<svg width="16" height="17" viewBox="0 0 16 17" fill="none" xmlns="http://www.w3.org/2000/svg">
<path d="M14.5211 7.05712H1.12109M10.7989 1.10156V4.07934M4.84332 1.10156V4.07934M4.69443 15.9905H10.9478C12.1985 15.9905 12.8239 15.9905 13.3017 15.747C13.7219 15.5329 14.0636 15.1913 14.2777 14.771C14.5211 14.2933 14.5211 13.6679 14.5211 12.4171V6.16378C14.5211 4.913 14.5211 4.28761 14.2777 3.80987C14.0636 3.38964 13.7219 3.04799 13.3017 2.83387C12.8239 2.59045 12.1985 2.59045 10.9478 2.59045H4.69443C3.44364 2.59045 2.81825 2.59045 2.34051 2.83387C1.92029 3.04799 1.57863 3.38964 1.36451 3.80987C1.12109 4.28761 1.12109 4.913 1.12109 6.16378V12.4171C1.12109 13.6679 1.12109 14.2933 1.36451 14.771C1.57863 15.1913 1.92029 15.5329 2.34051 15.747C2.81825 15.9905 3.44364 15.9905 4.69443 15.9905Z" stroke="#6F6B7D" strokeWidth="1.3" strokeLinecap="round" strokeLinejoin="round"/>
<rect x="4.1467" y="8.77854" width="0.465278" height="0.465278" fill="#344050" stroke="#6F6B7D" strokeWidth="0.465278"/>
<rect x="4.1467" y="10.6399" width="0.465278" height="0.465278" fill="#344050" stroke="#6F6B7D" strokeWidth="0.465278"/>
<rect x="4.1467" y="12.5012" width="0.465278" height="0.465278" fill="#344050" stroke="#6F6B7D" strokeWidth="0.465278"/>
<rect x="6.00608" y="8.77854" width="0.465278" height="0.465278" fill="#344050" stroke="#6F6B7D" strokeWidth="0.465278"/>
<rect x="6.00608" y="10.6399" width="0.465278" height="0.465278" fill="#344050" stroke="#6F6B7D" strokeWidth="0.465278"/>
<rect x="6.00608" y="12.5012" width="0.465278" height="0.465278" fill="#344050" stroke="#6F6B7D" strokeWidth="0.465278"/>
<rect x="7.86545" y="8.77854" width="0.465278" height="0.465278" fill="#344050" stroke="#6F6B7D" strokeWidth="0.465278"/>
<rect x="7.86545" y="10.6399" width="0.465278" height="0.465278" fill="#344050" stroke="#6F6B7D" strokeWidth="0.465278"/>
<rect x="9.72873" y="8.77854" width="0.465278" height="0.465278" fill="#344050" stroke="#6F6B7D" strokeWidth="0.465278"/>
<rect x="9.72873" y="10.6399" width="0.465278" height="0.465278" fill="#344050" stroke="#6F6B7D" strokeWidth="0.465278"/>
<rect x="11.592" y="8.77854" width="0.465278" height="0.465278" fill="#344050" stroke="#6F6B7D" strokeWidth="0.465278"/>
<rect x="11.592" y="10.6399" width="0.465278" height="0.465278" fill="#344050" stroke="#6F6B7D" strokeWidth="0.465278"/>
</svg>
